<svg width="879" height="575" viewBox="0 0 879 575" fill="none" xmlns="http://www.w3.org/2000/svg">
<g clip-path="url(#clip0_60_2)">
<path d="M171.207 57.5984H118.917C113.89 57.6029 109.07 59.5923 105.515 63.1298C101.96 66.6673 99.9611 71.464 99.9566 76.4668V132.883C99.288 132.844 98.6195 132.784 97.9608 132.705C85.5728 131.408 73.7953 126.692 63.9561 119.091C54.1169 111.489 46.6073 101.303 42.274 89.6811C37.9407 78.0593 36.956 65.4639 39.431 53.315C41.9059 41.1661 47.7421 29.9468 56.2815 20.9221C64.8209 11.8974 75.7239 5.42625 87.7611 2.23813C99.7984 -0.949976 112.491 -0.728209 124.409 2.87845C136.326 6.4851 146.994 13.3332 155.21 22.6507C163.426 31.9681 168.863 43.3843 170.907 55.6122C171.017 56.2676 171.117 56.933 171.207 57.5984Z" fill="#CCCCCC"/>
<path d="M788.508 55.6122H118.917C113.361 55.6182 108.034 57.8173 104.105 61.727C100.177 65.6367 97.9669 70.9376 97.9608 76.4668V428.015C97.9669 433.544 100.177 438.845 104.105 442.755C108.034 446.665 113.361 448.864 118.917 448.87H788.508C794.064 448.864 799.391 446.665 803.32 442.755C807.248 438.845 809.458 433.544 809.464 428.015V76.4668C809.458 70.9376 807.248 65.6367 803.32 61.727C799.391 57.8173 794.064 55.6182 788.508 55.6122ZM807.468 428.015C807.464 433.018 805.465 437.815 801.91 441.352C798.355 444.89 793.535 446.879 788.508 446.884H118.917C113.89 446.879 109.07 444.89 105.515 441.352C101.96 437.815 99.9611 433.018 99.9566 428.015V76.4668C99.9611 71.4639 101.96 66.6673 105.515 63.1298C109.07 59.5922 113.89 57.6029 118.917 57.5983H788.508C793.535 57.6029 798.355 59.5922 801.91 63.1298C805.465 66.6673 807.464 71.4639 807.468 76.4668V428.015Z" fill="#3F3D56"/>
<path d="M755.578 112.585H151.847C151.583 112.585 151.329 112.48 151.142 112.294C150.955 112.107 150.85 111.855 150.85 111.591C150.85 111.328 150.955 111.076 151.142 110.889C151.329 110.703 151.583 110.598 151.847 110.598H755.578C755.842 110.598 756.096 110.703 756.283 110.889C756.47 111.076 756.576 111.328 756.576 111.591C756.576 111.855 756.47 112.107 756.283 112.294C756.096 112.48 755.842 112.585 755.578 112.585Z" fill="#3F3D56"/>
<path d="M322.489 406.168C322.224 406.168 321.97 406.063 321.783 405.877C321.596 405.691 321.491 405.438 321.491 405.175V78.4529C321.491 78.1895 321.596 77.9369 321.783 77.7507C321.97 77.5645 322.224 77.4598 322.489 77.4598C322.753 77.4598 323.007 77.5645 323.194 77.7507C323.381 77.9369 323.486 78.1895 323.486 78.4529V405.175C323.486 405.438 323.381 405.691 323.194 405.877C323.007 406.063 322.753 406.168 322.489 406.168Z" fill="#3F3D56"/>
<path d="M473.172 406.168C472.907 406.168 472.653 406.063 472.466 405.877C472.279 405.691 472.174 405.438 472.174 405.175V78.4529C472.174 78.1895 472.279 77.9369 472.466 77.7507C472.653 77.5645 472.907 77.4598 473.172 77.4598C473.436 77.4598 473.69 77.5645 473.877 77.7507C474.064 77.9369 474.17 78.1895 474.17 78.4529V405.175C474.169 405.438 474.064 405.691 473.877 405.877C473.69 406.063 473.436 406.168 473.172 406.168Z" fill="#3F3D56"/>
<path d="M623.855 406.168C623.59 406.168 623.336 406.063 623.149 405.877C622.962 405.691 622.857 405.438 622.857 405.175V78.4529C622.857 78.1895 622.962 77.9369 623.149 77.7507C623.336 77.5645 623.59 77.4598 623.855 77.4598C624.119 77.4598 624.373 77.5645 624.56 77.7507C624.747 77.9369 624.853 78.1895 624.853 78.4529V405.175C624.853 405.438 624.747 405.691 624.56 405.877C624.373 406.063 624.119 406.168 623.855 406.168Z" fill="#3F3D56"/>
<path d="M225.608 215.088H189.145C187.954 215.086 186.813 214.615 185.971 213.777C185.129 212.939 184.655 211.804 184.654 210.619V167.798C184.655 166.613 185.129 165.477 185.971 164.639C186.813 163.801 187.954 163.33 189.145 163.329H225.608C226.799 163.33 227.94 163.801 228.782 164.639C229.624 165.477 230.097 166.613 230.099 167.798V210.619C230.097 211.804 229.624 212.939 228.782 213.777C227.94 214.615 226.799 215.086 225.608 215.088Z" fill="#2BBCAB"/>
<path d="M277.499 337.236H241.036C239.845 337.234 238.704 336.763 237.862 335.925C237.02 335.088 236.546 333.952 236.545 332.767V289.946C236.546 288.761 237.02 287.625 237.862 286.787C238.704 285.95 239.845 285.478 241.036 285.477H277.499C278.689 285.478 279.831 285.95 280.673 286.787C281.515 287.625 281.988 288.761 281.989 289.946V332.767C281.988 333.952 281.515 335.088 280.673 335.925C279.831 336.763 278.689 337.234 277.499 337.236Z" fill="#29C2FA"/>
<path d="M395.251 240.907H358.788C357.597 240.906 356.456 240.435 355.614 239.597C354.772 238.759 354.299 237.623 354.297 236.439V193.618C354.299 192.433 354.772 191.297 355.614 190.459C356.456 189.621 357.597 189.15 358.788 189.149H395.251C396.442 189.15 397.583 189.621 398.425 190.459C399.267 191.297 399.741 192.433 399.742 193.618V236.439C399.741 237.623 399.267 238.759 398.425 239.597C397.583 240.435 396.442 240.906 395.251 240.907Z" fill="#2BBCAB"/>
<path d="M547.93 194.233H511.467C510.276 194.232 509.135 193.76 508.293 192.923C507.451 192.085 506.978 190.949 506.976 189.764V146.943C506.978 145.758 507.451 144.622 508.293 143.785C509.135 142.947 510.276 142.476 511.467 142.474H547.93C549.121 142.476 550.262 142.947 551.104 143.785C551.946 144.622 552.419 145.758 552.421 146.943V189.764C552.419 190.949 551.946 192.085 551.104 192.923C550.262 193.76 549.121 194.232 547.93 194.233Z" fill="#29C2FA"/>
<path d="M688.634 194.233H652.171C650.98 194.232 649.839 193.76 648.997 192.923C648.155 192.085 647.682 190.949 647.68 189.764V146.943C647.682 145.758 648.155 144.622 648.997 143.785C649.839 142.947 650.98 142.476 652.171 142.474H688.634C689.825 142.476 690.966 142.947 691.808 143.785C692.65 144.622 693.123 145.758 693.125 146.943V189.764C693.123 190.949 692.65 192.085 691.808 192.923C690.966 193.76 689.825 194.232 688.634 194.233Z" fill="#0079FD"/>
<path d="M753.498 206.15H717.035C715.844 206.149 714.702 205.677 713.861 204.84C713.019 204.002 712.545 202.866 712.544 201.681V158.86C712.545 157.675 713.019 156.539 713.861 155.702C714.702 154.864 715.844 154.393 717.035 154.391H753.498C754.688 154.393 755.83 154.864 756.672 155.702C757.513 156.539 757.987 157.675 757.988 158.86V201.681C757.987 202.866 757.513 204.002 756.672 204.84C755.83 205.677 754.688 206.149 753.498 206.15Z" fill="#CCCCCC"/>
<path d="M724.559 282.617H688.095C686.905 282.615 685.763 282.144 684.921 281.306C684.08 280.468 683.606 279.333 683.605 278.148V235.327C683.606 234.142 684.08 233.006 684.921 232.168C685.763 231.331 686.905 230.859 688.095 230.858H724.559C725.749 230.859 726.891 231.331 727.732 232.168C728.574 233.006 729.048 234.142 729.049 235.327V278.148C729.048 279.333 728.574 280.469 727.732 281.306C726.891 282.144 725.749 282.615 724.559 282.617Z" fill="#CCCCCC"/>
<path d="M600.819 266.727H564.356C563.165 266.726 562.024 266.255 561.182 265.417C560.34 264.579 559.866 263.443 559.865 262.259V219.438C559.866 218.253 560.34 217.117 561.182 216.279C562.024 215.441 563.165 214.97 564.356 214.969H600.819C602.009 214.97 603.151 215.441 603.993 216.279C604.835 217.117 605.308 218.253 605.309 219.438V262.259C605.308 263.443 604.835 264.579 603.993 265.417C603.151 266.255 602.009 266.726 600.819 266.727Z" fill="#2BBCAB"/>
<path d="M529.968 282.617H493.505C492.314 282.615 491.173 282.144 490.331 281.306C489.489 280.468 489.015 279.333 489.014 278.148V235.327C489.015 234.142 489.489 233.006 490.331 232.168C491.173 231.331 492.314 230.859 493.505 230.858H529.968C531.158 230.859 532.3 231.331 533.142 232.168C533.984 233.006 534.457 234.142 534.458 235.327V278.148C534.457 279.333 533.984 280.469 533.142 281.306C532.3 282.144 531.158 282.615 529.968 282.617Z" fill="#CCCCCC"/>
<path d="M377.289 350.146H340.826C339.635 350.144 338.494 349.673 337.652 348.835C336.81 347.998 336.337 346.862 336.335 345.677V302.856C336.337 301.671 336.81 300.535 337.652 299.697C338.494 298.86 339.635 298.388 340.826 298.387H377.289C378.48 298.388 379.621 298.86 380.463 299.697C381.305 300.535 381.778 301.671 381.78 302.856V345.677C381.778 346.862 381.305 347.998 380.463 348.835C379.621 349.673 378.48 350.144 377.289 350.146Z" fill="#CCCCCC"/>
<path d="M192.677 293.54H156.214C155.023 293.539 153.882 293.068 153.04 292.23C152.198 291.392 151.725 290.256 151.723 289.072V246.251C151.725 245.066 152.198 243.93 153.04 243.092C153.882 242.254 155.023 241.783 156.214 241.782H192.677C193.868 241.783 195.009 242.254 195.851 243.092C196.693 243.93 197.166 245.066 197.168 246.251V289.072C197.166 290.256 196.693 291.392 195.851 292.23C195.009 293.068 193.868 293.539 192.677 293.54Z" fill="#0079FD"/>
<path d="M295.461 215.088H258.998C257.807 215.086 256.666 214.615 255.824 213.777C254.982 212.939 254.508 211.804 254.507 210.619V167.798C254.508 166.613 254.982 165.477 255.824 164.639C256.666 163.801 257.807 163.33 258.998 163.329H295.461C296.652 163.33 297.793 163.801 298.635 164.639C299.477 165.477 299.95 166.613 299.952 167.798V210.619C299.95 211.804 299.477 212.939 298.635 213.777C297.793 214.615 296.652 215.086 295.461 215.088Z" fill="#CCCCCC"/>
<path d="M265.608 96.3283H208.728C207.669 96.3283 206.654 95.9098 205.905 95.1648C205.157 94.4199 204.736 93.4095 204.736 92.356C204.736 91.3024 205.157 90.2921 205.905 89.5471C206.654 88.8022 207.669 88.3837 208.728 88.3837H265.608C266.667 88.3837 267.682 88.8022 268.431 89.5471C269.179 90.2921 269.6 91.3024 269.6 92.356C269.6 93.4095 269.179 94.4199 268.431 95.1648C267.682 95.9098 266.667 96.3283 265.608 96.3283Z" fill="#CCCCCC"/>
<path d="M426.27 96.3283H369.39C368.331 96.3283 367.316 95.9098 366.567 95.1648C365.819 94.4199 365.398 93.4095 365.398 92.356C365.398 91.3024 365.819 90.2921 366.567 89.5471C367.316 88.8022 368.331 88.3837 369.39 88.3837H426.27C427.329 88.3837 428.344 88.8022 429.093 89.5471C429.841 90.2921 430.262 91.3024 430.262 92.356C430.262 93.4095 429.841 94.4199 429.093 95.1648C428.344 95.9098 427.329 96.3283 426.27 96.3283Z" fill="#CCCCCC"/>
<path d="M576.953 96.3283H520.073C519.014 96.3283 517.999 95.9098 517.25 95.1648C516.502 94.4199 516.081 93.4095 516.081 92.356C516.081 91.3024 516.502 90.2921 517.25 89.5471C517.999 88.8022 519.014 88.3837 520.073 88.3837H576.953C578.012 88.3837 579.027 88.8022 579.776 89.5471C580.524 90.2921 580.945 91.3024 580.945 92.356C580.945 93.4095 580.524 94.4199 579.776 95.1648C579.027 95.9098 578.012 96.3283 576.953 96.3283Z" fill="#CCCCCC"/>
<path d="M717.657 96.3283H660.777C659.718 96.3283 658.703 95.9098 657.955 95.1648C657.206 94.4199 656.785 93.4095 656.785 92.356C656.785 91.3024 657.206 90.2921 657.955 89.5471C658.703 88.8022 659.718 88.3837 660.777 88.3837H717.657C718.716 88.3837 719.731 88.8022 720.48 89.5471C721.228 90.2921 721.649 91.3024 721.649 92.356C721.649 93.4095 721.228 94.4199 720.48 95.1648C719.731 95.9098 718.716 96.3283 717.657 96.3283Z" fill="#CCCCCC"/>
<path d="M138.209 387.191C136.749 387.049 135.338 386.59 134.076 385.846C132.813 385.103 131.73 384.093 130.902 382.887C130.075 381.682 129.523 380.311 129.285 378.87C129.047 377.429 129.13 375.954 129.527 374.549L103.948 350.853L117.473 347.439L142.625 367.741C144.954 368.562 146.898 370.204 148.091 372.356C149.284 374.508 149.643 377.021 149.098 379.418C148.554 381.816 147.145 383.931 145.138 385.364C143.131 386.797 140.666 387.447 138.209 387.191Z" fill="#FFB8B8"/>
<path d="M173.53 562.332H185.764L191.584 515.371H173.528L173.53 562.332Z" fill="#FFB8B8"/>
<path d="M209.358 573.636L170.908 573.637L170.908 558.853L194.502 558.852C198.442 558.852 202.221 560.41 205.007 563.182C207.793 565.954 209.358 569.715 209.358 573.636Z" fill="#2F2E41"/>
<path d="M89.647 553.541L101.47 556.673L119.234 512.783L101.785 508.161L89.647 553.541Z" fill="#FFB8B8"/>
<path d="M121.348 573.639L84.1923 563.797L88.0134 549.511L110.814 555.55C114.621 556.559 117.87 559.031 119.846 562.424C121.821 565.816 122.362 569.85 121.348 573.639Z" fill="#2F2E41"/>
<path d="M189.054 553.441H170.386C169.207 553.445 168.069 553.009 167.196 552.22C166.323 551.431 165.779 550.346 165.67 549.177L154.337 432.062C154.254 431.203 153.874 430.4 153.261 429.789C152.648 429.178 151.841 428.799 150.978 428.715C150.115 428.631 149.249 428.848 148.529 429.329C147.809 429.81 147.28 430.526 147.031 431.352L114.127 540.789C113.779 541.952 112.993 542.936 111.934 543.537C110.874 544.138 109.622 544.308 108.439 544.012L91.0726 539.691C90.4665 539.54 89.8964 539.271 89.3949 538.901C88.8935 538.53 88.4708 538.064 88.151 537.53C87.8313 536.995 87.6209 536.404 87.5319 535.788C87.4429 535.173 87.4772 534.546 87.6326 533.944C87.9162 532.841 115.984 423.684 116.229 422.562C122.588 375.92 130.196 363.421 134.284 356.707C134.622 356.151 134.933 355.64 135.213 355.157C135.563 354.553 137.72 348.559 139.088 344.666C139.266 344.033 139.574 343.443 139.992 342.934C140.41 342.425 140.93 342.008 141.518 341.709C158.693 332.968 178.787 339.019 184.537 341.082C185.49 341.416 186.309 342.048 186.87 342.884C204.119 368.775 195.654 519.147 193.782 549.028C193.704 550.223 193.172 551.344 192.294 552.164C191.416 552.983 190.258 553.44 189.054 553.441Z" fill="#2F2E41"/>
<path d="M140.878 256.795C154.415 256.795 165.388 245.874 165.388 232.404C165.388 218.933 154.415 208.013 140.878 208.013C127.342 208.013 116.369 218.933 116.369 232.404C116.369 245.874 127.342 256.795 140.878 256.795Z" fill="#FFB8B8"/>
<path d="M138.281 349.401L138.105 349.232C137.775 348.914 105.119 317.076 109.345 287.637C111.153 275.045 121.39 266.999 138.951 264.368C145.402 263.415 151.982 264.811 157.482 268.299C162.982 271.788 167.032 277.135 168.888 283.357L186.251 342.43L138.281 349.401Z" fill="#CCCCCC"/>
<path d="M121.568 372.046L98.2982 349.036C96.7071 347.453 95.552 345.49 94.9438 343.335C94.3357 341.18 94.295 338.905 94.8258 336.73L106.091 291.129C106.428 289.763 107.044 288.48 107.9 287.36C108.755 286.239 109.833 285.306 111.066 284.617C112.299 283.928 113.661 283.498 115.067 283.354C116.474 283.21 117.895 283.355 119.243 283.78C121.812 284.604 123.958 286.391 125.227 288.763C126.495 291.134 126.786 293.904 126.038 296.485L114.178 336.602L133.356 357.096L121.568 372.046Z" fill="#CCCCCC"/>
<path d="M246.377 293.516C245.761 294.841 244.862 296.016 243.741 296.958C242.62 297.9 241.305 298.585 239.889 298.967C238.473 299.348 236.99 299.416 235.545 299.165C234.1 298.915 232.727 298.352 231.524 297.516L200.46 313.539L201.833 299.928L229.372 282.968C230.916 281.05 233.114 279.762 235.549 279.349C237.984 278.935 240.486 279.425 242.582 280.725C244.678 282.025 246.222 284.046 246.922 286.403C247.621 288.76 247.427 291.291 246.377 293.516Z" fill="#FFB8B8"/>
<path d="M228.132 303.647L197.849 316.67C195.834 317.53 193.63 317.859 191.449 317.627C189.269 317.394 187.185 316.607 185.398 315.341L146.891 287.883C145.741 287.064 144.773 286.018 144.046 284.811C143.319 283.604 142.849 282.262 142.664 280.867C142.48 279.472 142.585 278.054 142.973 276.701C143.361 275.348 144.024 274.089 144.921 273.001C146.645 270.933 149.109 269.614 151.793 269.323C154.477 269.033 157.169 269.793 159.3 271.444L192.319 297.306L218.564 287.201L228.132 303.647Z" fill="#CCCCCC"/>
<path d="M144.942 240.219C147.965 236.449 153.614 236.247 157.768 233.76C163.208 230.502 165.457 223.222 163.704 217.15C161.951 211.077 156.78 206.344 150.853 204.08C144.925 201.817 138.329 201.789 132.076 202.883C122.765 204.512 113.599 208.837 107.92 216.358C102.242 223.879 100.797 234.895 105.943 242.786C108.308 246.413 111.96 249.407 112.904 253.628C114.144 259.169 110.238 264.513 106.054 268.371C101.287 272.766 95.8186 276.448 91.6425 281.403C87.4664 286.358 84.6815 293.127 86.5871 299.31C88.1838 304.49 92.8299 308.307 97.9247 310.218C103.02 312.129 108.568 312.406 114.012 312.512C119.298 312.615 124.913 312.487 129.366 309.65C134.133 306.614 136.678 300.853 136.866 295.224C137.054 289.594 135.164 284.079 132.631 279.042C131.121 276.04 129.365 273.131 128.361 269.925C127.358 266.72 127.184 263.083 128.791 260.131C130.48 257.028 133.897 255.157 137.377 254.476C137.558 254.441 137.749 254.409 137.949 254.381C138.939 254.253 139.893 253.927 140.753 253.422C141.612 252.917 142.36 252.244 142.951 251.443C143.542 250.642 143.963 249.73 144.19 248.762C144.416 247.795 144.443 246.791 144.269 245.813C143.873 243.614 143.907 241.509 144.942 240.219Z" fill="#2F2E41"/>
<path d="M471.727 563.372H459.493L453.673 516.411L471.729 516.412L471.727 563.372Z" fill="#A0616A"/>
<path d="M450.755 559.893H474.349V574.676H435.899C435.899 572.735 436.283 570.813 437.03 569.019C437.776 567.225 438.87 565.595 440.25 564.223C441.629 562.85 443.267 561.761 445.069 561.018C446.872 560.275 448.804 559.893 450.755 559.893Z" fill="#2F2E41"/>
<path d="M560.496 549.581L549.368 554.638L524.466 514.33L540.891 506.865L560.496 549.581Z" fill="#A0616A"/>
<path d="M539.967 555.088L561.428 545.332L567.6 558.78L532.626 574.677C531.815 572.911 531.362 571.004 531.293 569.064C531.223 567.123 531.538 565.189 532.219 563.369C532.901 561.55 533.936 559.883 535.265 558.462C536.595 557.041 538.192 555.894 539.967 555.088Z" fill="#2F2E41"/>
<path d="M524.868 405.033C526.04 404.155 527.005 403.032 527.694 401.743C528.382 400.454 528.779 399.03 528.855 397.572C528.931 396.114 528.685 394.658 528.135 393.304C527.584 391.951 526.742 390.735 525.668 389.741L540.049 357.267L521.779 360.349L510.923 390.714C509.364 392.62 508.563 395.03 508.67 397.485C508.777 399.941 509.786 402.272 511.505 404.037C513.223 405.802 515.533 406.878 517.996 407.062C520.459 407.245 522.904 406.523 524.868 405.033Z" fill="#A0616A"/>
<path d="M470.948 550.989H459.26C458.127 550.985 457.036 550.557 456.206 549.788C455.376 549.02 454.867 547.969 454.781 546.844L448.408 377.467C448.36 376.818 448.456 376.166 448.688 375.558C448.92 374.949 449.283 374.399 449.751 373.944C450.219 373.49 450.781 373.143 451.398 372.927C452.015 372.711 452.672 372.632 453.323 372.695L520.915 379.839C522.011 379.946 523.029 380.449 523.776 381.253C524.523 382.057 524.948 383.107 524.969 384.202L526.386 458.916C526.393 459.322 526.472 459.723 526.619 460.102L554.346 531.655C554.56 532.208 554.662 532.798 554.645 533.39C554.628 533.982 554.493 534.565 554.247 535.105C554.002 535.645 553.651 536.131 553.215 536.534C552.779 536.938 552.267 537.251 551.708 537.456L539.865 541.798C538.836 542.175 537.704 542.165 536.683 541.769C535.661 541.373 534.821 540.619 534.319 539.649L500.258 473.74C500.073 473.382 499.937 473 499.855 472.605L494.036 444.706C493.867 443.897 493.415 443.174 492.759 442.668C492.103 442.161 491.288 441.903 490.459 441.94C489.629 441.978 488.84 442.308 488.233 442.871C487.626 443.435 487.241 444.195 487.147 445.016L475.409 547.029C475.284 548.119 474.76 549.125 473.937 549.855C473.114 550.586 472.05 550.99 470.948 550.989Z" fill="#2F2E41"/>
<path d="M476.767 245.03C490.303 245.03 501.277 234.11 501.277 220.639C501.277 207.168 490.303 196.248 476.767 196.248C463.231 196.248 452.258 207.168 452.258 220.639C452.258 234.11 463.231 245.03 476.767 245.03Z" fill="#A0616A"/>
<path d="M493.575 392.954C476.955 392.772 460.73 387.881 446.801 378.854L446.563 378.69L446.587 378.403L455.962 269.745C456.286 266.058 457.939 262.613 460.617 260.046C463.295 257.479 466.817 255.964 470.531 255.78C482.681 255.225 499.002 255.925 507.738 262.401C520.941 272.187 527.305 286.924 525.197 302.831C520.826 335.82 525.778 380.32 526.357 385.286L526.399 385.643L526.07 385.794C515.891 390.506 504.802 392.95 493.575 392.954Z" fill="#0079FD"/>
<path d="M526.244 385.47C525.553 385.469 524.87 385.325 524.237 385.048C523.605 384.77 523.038 384.366 522.571 383.859L517.209 378.038C516.63 377.406 516.224 376.635 516.03 375.801C515.836 374.968 515.861 374.098 516.103 373.276L528.328 332.1L509.727 293.227C508.858 291.408 508.645 289.346 509.124 287.389C509.546 285.67 510.482 284.12 511.808 282.942C513.133 281.764 514.786 281.013 516.549 280.789C518.312 280.565 520.102 280.877 521.683 281.686C523.264 282.495 524.561 283.762 525.403 285.319L550.645 326.077C551.67 327.73 552.272 329.609 552.397 331.548C552.523 333.487 552.168 335.427 551.363 337.198L530.797 382.546C530.458 383.296 529.937 383.95 529.281 384.449C528.625 384.948 527.854 385.277 527.038 385.406C526.776 385.448 526.51 385.469 526.244 385.47Z" fill="#0079FD"/>
<path d="M353.485 306.813C354.662 307.684 356.017 308.288 357.454 308.582C358.891 308.876 360.375 308.853 361.802 308.514C363.229 308.175 364.564 307.529 365.713 306.622C366.862 305.714 367.797 304.566 368.452 303.26L403.816 307.825L395.688 291.252L363.353 289.458C361.075 288.508 358.526 288.423 356.189 289.218C353.852 290.014 351.889 291.635 350.673 293.774C349.457 295.913 349.071 298.422 349.589 300.825C350.108 303.228 351.494 305.359 353.485 306.813Z" fill="#A0616A"/>
<path d="M431.432 315.864C430.817 315.864 430.202 315.822 429.592 315.738L373.958 308.059C373.049 307.935 372.185 307.587 371.444 307.048C370.704 306.508 370.11 305.794 369.716 304.969C369.589 304.703 369.483 304.428 369.399 304.146C369.183 303.413 369.123 302.643 369.222 301.885C369.321 301.128 369.576 300.399 369.972 299.745L374.576 292.149C375.071 291.337 375.768 290.665 376.599 290.198C377.43 289.731 378.368 289.484 379.322 289.481H379.329L427.823 289.537L464.041 257.245C465.726 255.746 467.878 254.87 470.136 254.763C472.118 254.671 474.081 255.18 475.767 256.221C477.452 257.263 478.781 258.789 479.578 260.597C480.375 262.406 480.602 264.412 480.23 266.351C479.857 268.291 478.903 270.073 477.493 271.462L441.354 311.461C440.103 312.847 438.573 313.955 436.864 314.713C435.155 315.472 433.304 315.864 431.432 315.864Z" fill="#0079FD"/>
<path d="M479.554 242.338C481.793 237.18 483.689 230.309 479.393 226.662C476.901 224.547 473.312 224.542 470.047 224.279C460.849 223.538 451.381 219.326 446.885 211.306C442.389 203.286 444.9 191.361 453.381 187.742C459.099 185.303 465.653 186.965 471.637 188.654L489.605 193.724C494.944 195.231 500.55 196.892 504.393 200.876C510.523 207.229 510.065 217.968 505.196 225.323C500.328 232.678 492.995 240.349 484.602 243.142L479.554 242.338Z" fill="#2F2E41"/>
<path d="M759.378 575H-99.1103C-99.2666 575 -99.4215 574.97 -99.566 574.911C-99.7106 574.852 -99.842 574.765 -99.9527 574.655C-100.063 574.545 -100.151 574.415 -100.211 574.271C-100.271 574.127 -100.302 573.973 -100.302 573.818C-100.302 573.662 -100.271 573.508 -100.211 573.364C-100.151 573.221 -100.063 573.09 -99.9527 572.98C-99.842 572.87 -99.7106 572.783 -99.566 572.724C-99.4215 572.665 -99.2666 572.635 -99.1103 572.635H637.634C637.79 572.635 637.945 572.665 638.09 572.724C638.234 572.783 638.366 572.87 638.477 572.98C638.587 573.09 638.675 573.221 638.735 573.364C638.795 573.508 638.826 573.662 638.826 573.818C638.826 573.973 638.795 574.127 638.735 574.271C638.675 574.415 638.587 574.545 638.477 574.655C638.366 574.765 638.234 574.852 638.09 574.911C637.945 574.97 637.79 575 637.634 575H759.378Z" fill="#3F3D56"/>
</g>
<defs>
<clipPath id="clip0_60_2">
<rect width="970" height="575" fill="white" transform="translate(-91)"/>
</clipPath>
</defs>
</svg>
