<svg width="18" height="20" viewBox="0 0 18 20" fill="none" xmlns="http://www.w3.org/2000/svg">
<path fill-rule="evenodd" clip-rule="evenodd" d="M5.60855 0C5.31106 0 5.02575 0.114599 4.81538 0.318586C4.60502 0.522573 4.48684 0.799238 4.48684 1.08772C4.48684 1.3762 4.60502 1.65287 4.81538 1.85685C5.02575 2.06084 5.31106 2.17544 5.60855 2.17544H15.7039V16.3158C15.7039 16.6043 15.5858 16.8809 15.3754 17.0849C15.165 17.2889 14.8797 17.4035 14.5822 17.4035H5.60855C5.31106 17.4035 5.02575 17.5181 4.81538 17.7221C4.60502 17.9261 4.48684 18.2027 4.48684 18.4912C4.48684 18.7797 4.60502 19.0564 4.81538 19.2604C5.02575 19.4643 5.31106 19.5789 5.60855 19.5789H14.5822C15.4747 19.5789 16.3307 19.2352 16.9617 18.6232C17.5928 18.0112 17.9474 17.1812 17.9474 16.3158V1.08772C17.9474 0.799238 17.8292 0.522573 17.6188 0.318586C17.4085 0.114599 17.1232 0 16.8257 0H5.60855ZM9.76673 5.7573C9.60986 5.60523 9.41001 5.50167 9.19245 5.45972C8.97489 5.41777 8.74939 5.43931 8.54446 5.52161C8.33952 5.60392 8.16435 5.7433 8.04109 5.92213C7.91783 6.10097 7.85202 6.31122 7.85197 6.52632V8.70175H1.12171C0.824214 8.70175 0.538903 8.81635 0.328542 9.02034C0.11818 9.22433 0 9.50099 0 9.78947C0 10.078 0.11818 10.3546 0.328542 10.5586C0.538903 10.7626 0.824214 10.8772 1.12171 10.8772H7.85197V13.0526C7.85202 13.2677 7.91783 13.478 8.04109 13.6568C8.16435 13.8356 8.33952 13.975 8.54446 14.0573C8.74939 14.1396 8.97489 14.1612 9.19245 14.1192C9.41001 14.0773 9.60986 13.9737 9.76673 13.8216L13.1319 10.5585C13.3422 10.3545 13.4603 10.0779 13.4603 9.78947C13.4603 9.50105 13.3422 9.22443 13.1319 9.02046L9.76673 5.7573Z" fill="url(#paint0_linear_60_108)"/>
<defs>
<linearGradient id="paint0_linear_60_108" x1="17.9474" y1="9.80001" x2="-0.0841289" y2="9.80001" gradientUnits="userSpaceOnUse">
<stop stop-color="#2BBCAB"/>
<stop offset="0.33" stop-color="#29C2FA"/>
<stop offset="0.66" stop-color="#2248FB"/>
<stop offset="1" stop-color="#0079FD"/>
</linearGradient>
</defs>
</svg>
