<svg width="45" height="46" viewBox="0 0 45 46" fill="none" xmlns="http://www.w3.org/2000/svg">
<g clip-path="url(#clip0_2020_168)">
<path d="M0 32.3944L28.3009 32.4066L39.0634 32.4058C40.9727 32.4056 43.1054 32.451 45 32.3865V46H0.843275C0.361647 45.7012 0.269597 45.5346 0 45.0494V32.3944Z" fill="white"/>
<path d="M32.2288 0H32.9557C33.0564 0.0553258 33.4711 0.29407 33.5233 0.360008C34.1981 1.21231 34.906 2.60806 35.4471 3.55237L38.7074 9.25539L40.6014 12.5562C41.045 13.3322 41.7508 14.3346 41.8427 15.2207C41.9329 16.0896 40.8523 16.5924 40.2482 16.9488C39.3623 17.4715 38.4733 17.9805 37.5903 18.504L31.5567 22.0751C30.4909 22.7053 28.7395 23.8098 27.5526 24.3425C27.4244 24.4 26.1985 24.3744 25.9825 24.3726L23.5367 24.3645L13.7654 24.3818C13.6631 24.2515 13.5672 24.1161 13.478 23.9759C13.1086 23.3903 12.7032 22.6204 12.3592 22.0086L10.4806 18.6879L9.30632 16.6073C8.82037 15.75 7.82597 14.4028 8.94917 13.5406C9.56608 13.0671 10.3606 12.6779 11.0451 12.2814L14.8264 10.08L26.0345 3.54021L30.1912 1.12626C30.708 0.831522 31.7611 0.298881 32.1921 0.0236728L32.2288 0ZM22.8869 17.1487C23.4076 17.696 24.3628 18.903 25.1298 18.9549C25.7048 18.9939 26.2061 18.3539 26.3901 17.8263C26.8436 16.5273 27.2505 15.192 27.6844 13.8837C28.115 12.4678 28.7489 10.8408 29.1075 9.44729C28.8878 8.7369 28.4885 8.15265 27.6783 8.18517C26.4896 8.47963 26.6214 9.18145 26.2536 10.0506C26.0094 10.6276 24.823 14.8377 24.546 15.0578C24.4323 15.0597 24.3068 14.9608 24.235 14.8815C23.5059 14.0764 22.6713 12.9018 21.5846 14.0195C20.4483 15.1884 22.1643 16.4051 22.8869 17.1487Z" fill="white"/>
<path d="M37.0211 25.7359C36.721 24.398 36.0246 24.3198 34.8308 24.3537C34.6071 24.36 33.0823 24.4088 32.9985 24.3498C33.1535 24.0146 34.0818 23.5969 34.4034 23.402L38.5299 20.9449C39.5541 20.3398 40.8234 19.5314 41.8863 19.0246C42.29 18.8321 43.8596 18.846 44.2806 19.1056C44.6849 19.3548 44.8207 19.4804 45 19.9377V29.7686L16.7098 29.7563L5.74879 29.7564C3.91462 29.7563 1.80205 29.7018 0 29.767V19.9094C0.15284 19.615 0.530068 19.0489 0.871589 19.0098C1.63603 18.9222 7.54444 18.7773 7.73793 19.117C8.685 20.78 9.94285 22.7568 10.7649 24.4256C10.3363 24.3507 8.98888 24.297 8.63402 24.5782C8.3457 24.8067 8.10686 25.1473 8.04854 25.5276C7.9969 25.8688 8.08172 26.217 8.28387 26.4936C8.40401 26.6558 8.74578 26.9427 8.92499 26.9577C10.0778 27.0542 11.3482 27.0173 12.5058 27.0167L19.3594 27.015L30.3066 27.0147L33.8864 27.0159C34.5059 27.0159 35.1294 27.0232 35.7485 27.0075C36.4388 26.9899 36.8371 26.3379 37.0211 25.7359Z" fill="white"/>
</g>
<defs>
<clipPath id="clip0_2020_168">
<rect width="45" height="46" fill="white"/>
</clipPath>
</defs>
</svg>
