<svg width="32" height="32" viewBox="0 0 32 32" fill="none" xmlns="http://www.w3.org/2000/svg">
<g clip-path="url(#clip0_2010_3)">
<path d="M0 22.5353L20.1251 22.5438L27.7784 22.5432C29.1362 22.5431 30.6527 22.5747 32 22.5298V32H0.599662C0.257171 31.7922 0.191713 31.6763 0 31.3388V22.5353Z" fill="url(#paint0_linear_2010_3)"/>
<path d="M22.9183 0H23.4352C23.5068 0.0384875 23.8017 0.20457 23.8388 0.250441C24.3187 0.843347 24.822 1.8143 25.2068 2.47121L27.5253 6.43853L28.8721 8.73472C29.1876 9.27456 29.6895 9.97191 29.7548 10.5883C29.8189 11.1928 29.0505 11.5426 28.6209 11.7905C27.991 12.1541 27.3588 12.5082 26.7308 12.8723L22.4403 15.3566C21.6824 15.795 20.437 16.5633 19.593 16.9339C19.5018 16.9739 18.63 16.9561 18.4765 16.9548L16.7372 16.9492L9.78875 16.9613C9.71594 16.8706 9.64775 16.7764 9.58438 16.6789C9.32163 16.2715 9.03338 15.7359 8.78875 15.3103L7.45284 13.0002L6.61781 11.5529C6.27225 10.9565 5.56513 10.0193 6.36384 9.41956C6.80253 9.09016 7.3675 8.81944 7.85431 8.54356L10.5432 7.01216L18.5134 2.46276L21.4693 0.783484C21.8368 0.57845 22.5857 0.207917 22.8922 0.016468L22.9183 0ZM16.2751 11.9296C16.6454 12.3103 17.3246 13.1499 17.8701 13.186C18.279 13.2131 18.6354 12.7679 18.7663 12.4009C19.0887 11.4972 19.3781 10.5684 19.6867 9.65822C19.9929 8.67325 20.4437 7.54144 20.6986 6.57203C20.5424 6.07784 20.2585 5.67141 19.6823 5.69403C18.8371 5.89887 18.9307 6.38709 18.6692 6.99172C18.4956 7.39309 17.6519 10.3218 17.4549 10.475C17.3741 10.4763 17.2848 10.4075 17.2337 10.3523C16.7153 9.79225 16.1218 8.97519 15.349 9.75272C14.541 10.5658 15.7613 11.4122 16.2751 11.9296Z" fill="url(#paint1_linear_2010_3)"/>
<path d="M26.3261 17.9032C26.1127 16.9725 25.6175 16.9182 24.7686 16.9417C24.6095 16.9461 23.5252 16.98 23.4656 16.939C23.5758 16.7058 24.236 16.4153 24.4647 16.2796L27.3991 14.5704C28.1274 14.1494 29.03 13.5871 29.7858 13.2345C30.0729 13.1006 31.189 13.1103 31.4884 13.2909C31.7759 13.4642 31.8725 13.5516 32 13.8697V20.7086L11.8825 20.7L4.08803 20.7001C2.78373 20.7 1.28146 20.6622 0 20.7075V13.85C0.108686 13.6452 0.376938 13.2514 0.619797 13.2242C1.1634 13.1633 5.36494 13.0625 5.50253 13.2988C6.176 14.4556 7.07047 15.8308 7.65503 16.9918C7.35028 16.9396 6.39209 16.9023 6.13975 17.0979C5.93472 17.2568 5.76487 17.4938 5.72341 17.7583C5.68669 17.9957 5.747 18.2379 5.89075 18.4303C5.97619 18.5432 6.21922 18.7428 6.34666 18.7532C7.16644 18.8203 8.06981 18.7947 8.893 18.7942L13.7667 18.7931L21.5514 18.7929L24.097 18.7937C24.5376 18.7937 24.9809 18.7988 25.4211 18.7878C25.9121 18.7756 26.1953 18.322 26.3261 17.9032Z" fill="url(#paint2_linear_2010_3)"/>
</g>
<defs>
<linearGradient id="paint0_linear_2010_3" x1="32" y1="27.27" x2="-0.150001" y2="27.27" gradientUnits="userSpaceOnUse">
<stop stop-color="#2BBCAB"/>
<stop offset="0.33" stop-color="#29C2FA"/>
<stop offset="0.66" stop-color="#2248FB"/>
<stop offset="1" stop-color="#0079FD"/>
</linearGradient>
<linearGradient id="paint1_linear_2010_3" x1="29.7586" y1="8.48977" x2="5.88653" y2="8.48977" gradientUnits="userSpaceOnUse">
<stop stop-color="#2BBCAB"/>
<stop offset="0.33" stop-color="#29C2FA"/>
<stop offset="0.66" stop-color="#2248FB"/>
<stop offset="1" stop-color="#0079FD"/>
</linearGradient>
<linearGradient id="paint2_linear_2010_3" x1="32" y1="16.9301" x2="-0.150001" y2="16.9301" gradientUnits="userSpaceOnUse">
<stop stop-color="#2BBCAB"/>
<stop offset="0.33" stop-color="#29C2FA"/>
<stop offset="0.66" stop-color="#2248FB"/>
<stop offset="1" stop-color="#0079FD"/>
</linearGradient>
<clipPath id="clip0_2010_3">
<rect width="32" height="32" fill="white"/>
</clipPath>
</defs>
</svg>
