<svg width="358" height="60" viewBox="0 0 358 60" fill="none" xmlns="http://www.w3.org/2000/svg">
<path d="M18.496 11.576C18.496 12.7707 18.208 13.8907 17.632 14.936C17.0773 15.9813 16.192 16.824 14.976 17.464C13.7813 18.104 12.2667 18.424 10.432 18.424H6.688V27H2.208V4.664H10.432C12.16 4.664 13.632 4.96267 14.848 5.56C16.064 6.15733 16.9707 6.97867 17.568 8.024C18.1867 9.06933 18.496 10.2533 18.496 11.576ZM10.24 14.808C11.4773 14.808 12.3947 14.5307 12.992 13.976C13.5893 13.4 13.888 12.6 13.888 11.576C13.888 9.4 12.672 8.312 10.24 8.312H6.688V14.808H10.24ZM29.5488 27.288C27.8421 27.288 26.3061 26.9147 24.9408 26.168C23.5754 25.4 22.4981 24.3227 21.7088 22.936C20.9408 21.5493 20.5568 19.9493 20.5568 18.136C20.5568 16.3227 20.9514 14.7227 21.7408 13.336C22.5514 11.9493 23.6501 10.8827 25.0368 10.136C26.4234 9.368 27.9701 8.984 29.6768 8.984C31.3834 8.984 32.9301 9.368 34.3168 10.136C35.7034 10.8827 36.7914 11.9493 37.5808 13.336C38.3914 14.7227 38.7968 16.3227 38.7968 18.136C38.7968 19.9493 38.3808 21.5493 37.5487 22.936C36.7381 24.3227 35.6288 25.4 34.2208 26.168C32.8341 26.9147 31.2768 27.288 29.5488 27.288ZM29.5488 23.384C30.3594 23.384 31.1168 23.192 31.8208 22.808C32.5461 22.4027 33.1221 21.8053 33.5488 21.016C33.9754 20.2267 34.1888 19.2667 34.1888 18.136C34.1888 16.4507 33.7408 15.16 32.8448 14.264C31.9701 13.3467 30.8928 12.888 29.6128 12.888C28.3328 12.888 27.2554 13.3467 26.3808 14.264C25.5274 15.16 25.1008 16.4507 25.1008 18.136C25.1008 19.8213 25.5168 21.1227 26.3488 22.04C27.2021 22.936 28.2688 23.384 29.5488 23.384ZM52.579 27L46.563 19.448V27H42.083V3.32H46.563V16.792L52.515 9.272H58.339L50.531 18.168L58.403 27H52.579ZM77.2505 17.752C77.2505 18.392 77.2078 18.968 77.1225 19.48H64.1625C64.2692 20.76 64.7172 21.7627 65.5065 22.488C66.2958 23.2133 67.2665 23.576 68.4185 23.576C70.0825 23.576 71.2665 22.8613 71.9705 21.432H76.8025C76.2905 23.1387 75.3092 24.5467 73.8585 25.656C72.4078 26.744 70.6265 27.288 68.5145 27.288C66.8078 27.288 65.2718 26.9147 63.9065 26.168C62.5625 25.4 61.5065 24.3227 60.7385 22.936C59.9918 21.5493 59.6185 19.9493 59.6185 18.136C59.6185 16.3013 59.9918 14.6907 60.7385 13.304C61.4852 11.9173 62.5305 10.8507 63.8745 10.104C65.2185 9.35733 66.7652 8.984 68.5145 8.984C70.1998 8.984 71.7038 9.34667 73.0265 10.072C74.3705 10.7973 75.4052 11.832 76.1305 13.176C76.8772 14.4987 77.2505 16.024 77.2505 17.752ZM72.6105 16.472C72.5892 15.32 72.1732 14.4027 71.3625 13.72C70.5518 13.016 69.5598 12.664 68.3865 12.664C67.2772 12.664 66.3385 13.0053 65.5705 13.688C64.8238 14.3493 64.3652 15.2773 64.1945 16.472H72.6105ZM85.0005 12.024C85.5765 11.0853 86.3232 10.3493 87.2405 9.816C88.1792 9.28267 89.2458 9.016 90.4405 9.016V13.72H89.2565C87.8485 13.72 86.7818 14.0507 86.0565 14.712C85.3525 15.3733 85.0005 16.5253 85.0005 18.168V27H80.5205V9.272H85.0005V12.024ZM97.874 4.664V18.488C97.874 20.0027 98.2687 21.1653 99.058 21.976C99.8473 22.7653 100.957 23.16 102.386 23.16C103.837 23.16 104.957 22.7653 105.746 21.976C106.535 21.1653 106.93 20.0027 106.93 18.488V4.664H111.442V18.456C111.442 20.3547 111.026 21.9653 110.194 23.288C109.383 24.5893 108.285 25.5707 106.898 26.232C105.533 26.8933 104.007 27.224 102.322 27.224C100.658 27.224 99.1433 26.8933 97.778 26.232C96.434 25.5707 95.3673 24.5893 94.578 23.288C93.7887 21.9653 93.394 20.3547 93.394 18.456V4.664H97.874ZM129.562 4.664V8.28H120.251V14.008H127.387V17.56H120.251V27H115.771V4.664H129.562ZM146.531 4.664V8.28H137.219V14.008H144.355V17.56H137.219V27H132.739V4.664H146.531Z" fill="url(#paint0_linear_2077_2)"/>
<path d="M5.84 54.14C4.92 54.14 4.10667 53.98 3.4 53.66C2.70667 53.34 2.16 52.8933 1.76 52.32C1.36 51.7467 1.14667 51.1067 1.12 50.4H2.6C2.66667 51.08 2.96667 51.68 3.5 52.2C4.03333 52.7067 4.81333 52.96 5.84 52.96C6.78667 52.96 7.53333 52.72 8.08 52.24C8.64 51.7467 8.92 51.1267 8.92 50.38C8.92 49.78 8.76667 49.3 8.46 48.94C8.15333 48.5667 7.77333 48.2933 7.32 48.12C6.86667 47.9333 6.24 47.7333 5.44 47.52C4.50667 47.2667 3.76667 47.02 3.22 46.78C2.67333 46.54 2.20667 46.1667 1.82 45.66C1.43333 45.1533 1.24 44.4667 1.24 43.6C1.24 42.88 1.42667 42.24 1.8 41.68C2.17333 41.1067 2.7 40.66 3.38 40.34C4.06 40.02 4.84 39.86 5.72 39.86C7.01333 39.86 8.05333 40.18 8.84 40.82C9.64 41.4467 10.1 42.26 10.22 43.26H8.7C8.60667 42.6867 8.29333 42.18 7.76 41.74C7.22667 41.2867 6.50667 41.06 5.6 41.06C4.76 41.06 4.06 41.2867 3.5 41.74C2.94 42.18 2.66 42.7867 2.66 43.56C2.66 44.1467 2.81333 44.62 3.12 44.98C3.42667 45.34 3.80667 45.6133 4.26 45.8C4.72667 45.9867 5.35333 46.1867 6.14 46.4C7.04667 46.6533 7.78 46.9067 8.34 47.16C8.9 47.4 9.37333 47.7733 9.76 48.28C10.1467 48.7867 10.34 49.4667 10.34 50.32C10.34 50.9733 10.1667 51.5933 9.82 52.18C9.47333 52.7667 8.96 53.24 8.28 53.6C7.6 53.96 6.78667 54.14 5.84 54.14ZM22.5053 43.08V54H21.1053V52.08C20.7853 52.76 20.292 53.28 19.6253 53.64C18.9586 54 18.212 54.18 17.3853 54.18C16.0786 54.18 15.012 53.78 14.1853 52.98C13.3586 52.1667 12.9453 50.9933 12.9453 49.46V43.08H14.3253V49.3C14.3253 50.4867 14.6186 51.3933 15.2053 52.02C15.8053 52.6467 16.6186 52.96 17.6453 52.96C18.6986 52.96 19.5386 52.6267 20.1653 51.96C20.792 51.2933 21.1053 50.3133 21.1053 49.02V43.08H22.5053ZM25.0616 48.52C25.0616 47.4 25.2816 46.42 25.7216 45.58C26.1749 44.7267 26.7949 44.0733 27.5816 43.62C28.3816 43.1533 29.2816 42.92 30.2816 42.92C31.3216 42.92 32.2149 43.16 32.9616 43.64C33.7216 44.12 34.2682 44.7333 34.6016 45.48V43.08H36.0016V54H34.6016V51.58C34.2549 52.3267 33.7016 52.9467 32.9416 53.44C32.1949 53.92 31.3016 54.16 30.2616 54.16C29.2749 54.16 28.3816 53.9267 27.5816 53.46C26.7949 52.9933 26.1749 52.3333 25.7216 51.48C25.2816 50.6267 25.0616 49.64 25.0616 48.52ZM34.6016 48.54C34.6016 47.66 34.4216 46.8867 34.0616 46.22C33.7016 45.5533 33.2082 45.04 32.5816 44.68C31.9682 44.32 31.2882 44.14 30.5416 44.14C29.7682 44.14 29.0749 44.3133 28.4616 44.66C27.8482 45.0067 27.3616 45.5133 27.0016 46.18C26.6549 46.8333 26.4816 47.6133 26.4816 48.52C26.4816 49.4133 26.6549 50.2 27.0016 50.88C27.3616 51.5467 27.8482 52.06 28.4616 52.42C29.0749 52.7667 29.7682 52.94 30.5416 52.94C31.2882 52.94 31.9682 52.76 32.5816 52.4C33.2082 52.04 33.7016 51.5267 34.0616 50.86C34.4216 50.1933 34.6016 49.42 34.6016 48.54ZM48.9859 44.26H46.4459V54H45.0459V44.26H43.5259V43.08H45.0459V42.32C45.0459 41.1333 45.3459 40.26 45.9459 39.7C46.5593 39.14 47.5459 38.86 48.9059 38.86V40.06C47.9993 40.06 47.3593 40.2333 46.9859 40.58C46.6259 40.9267 46.4459 41.5067 46.4459 42.32V43.08H48.9859V44.26ZM61.0698 47.98C61.0698 48.46 61.0565 48.8267 61.0298 49.08H51.9698C52.0098 49.9067 52.2098 50.6133 52.5698 51.2C52.9298 51.7867 53.4032 52.2333 53.9898 52.54C54.5765 52.8333 55.2165 52.98 55.9098 52.98C56.8165 52.98 57.5765 52.76 58.1898 52.32C58.8165 51.88 59.2298 51.2867 59.4298 50.54H60.9098C60.6432 51.6067 60.0698 52.48 59.1898 53.16C58.3232 53.8267 57.2298 54.16 55.9098 54.16C54.8832 54.16 53.9632 53.9333 53.1498 53.48C52.3365 53.0133 51.6965 52.36 51.2298 51.52C50.7765 50.6667 50.5498 49.6733 50.5498 48.54C50.5498 47.4067 50.7765 46.4133 51.2298 45.56C51.6832 44.7067 52.3165 44.0533 53.1298 43.6C53.9432 43.1467 54.8698 42.92 55.9098 42.92C56.9498 42.92 57.8565 43.1467 58.6298 43.6C59.4165 44.0533 60.0165 44.6667 60.4298 45.44C60.8565 46.2 61.0698 47.0467 61.0698 47.98ZM59.6498 47.94C59.6632 47.1267 59.4965 46.4333 59.1498 45.86C58.8165 45.2867 58.3565 44.8533 57.7698 44.56C57.1832 44.2667 56.5432 44.12 55.8498 44.12C54.8098 44.12 53.9232 44.4533 53.1898 45.12C52.4565 45.7867 52.0498 46.7267 51.9698 47.94H59.6498ZM65.0313 45.02C65.3379 44.34 65.8046 43.8133 66.4313 43.44C67.0713 43.0667 67.8513 42.88 68.7713 42.88V44.34H68.3913C67.3779 44.34 66.5646 44.6133 65.9513 45.16C65.3379 45.7067 65.0313 46.62 65.0313 47.9V54H63.6313V43.08H65.0313V45.02ZM72.2773 45.02C72.584 44.34 73.0507 43.8133 73.6773 43.44C74.3173 43.0667 75.0973 42.88 76.0173 42.88V44.34H75.6373C74.624 44.34 73.8107 44.6133 73.1973 45.16C72.584 45.7067 72.2773 46.62 72.2773 47.9V54H70.8773V43.08H72.2773V45.02ZM77.4834 48.52C77.4834 47.4 77.7034 46.42 78.1434 45.58C78.5968 44.7267 79.2168 44.0733 80.0034 43.62C80.8034 43.1533 81.7034 42.92 82.7034 42.92C83.7434 42.92 84.6368 43.16 85.3834 43.64C86.1434 44.12 86.6901 44.7333 87.0234 45.48V43.08H88.4234V54H87.0234V51.58C86.6768 52.3267 86.1234 52.9467 85.3634 53.44C84.6168 53.92 83.7234 54.16 82.6834 54.16C81.6968 54.16 80.8034 53.9267 80.0034 53.46C79.2168 52.9933 78.5968 52.3333 78.1434 51.48C77.7034 50.6267 77.4834 49.64 77.4834 48.52ZM87.0234 48.54C87.0234 47.66 86.8434 46.8867 86.4834 46.22C86.1234 45.5533 85.6301 45.04 85.0034 44.68C84.3901 44.32 83.7101 44.14 82.9634 44.14C82.1901 44.14 81.4968 44.3133 80.8834 44.66C80.2701 45.0067 79.7834 45.5133 79.4234 46.18C79.0768 46.8333 78.9034 47.6133 78.9034 48.52C78.9034 49.4133 79.0768 50.2 79.4234 50.88C79.7834 51.5467 80.2701 52.06 80.8834 52.42C81.4968 52.7667 82.1901 52.94 82.9634 52.94C83.7101 52.94 84.3901 52.76 85.0034 52.4C85.6301 52.04 86.1234 51.5267 86.4834 50.86C86.8434 50.1933 87.0234 49.42 87.0234 48.54ZM104.62 42.88C105.9 42.88 106.94 43.2867 107.74 44.1C108.553 44.9 108.96 46.0667 108.96 47.6V54H107.58V47.76C107.58 46.5733 107.293 45.6667 106.72 45.04C106.146 44.4133 105.366 44.1 104.38 44.1C103.353 44.1 102.533 44.44 101.92 45.12C101.306 45.8 101 46.7867 101 48.08V54H99.6195V47.76C99.6195 46.5733 99.3329 45.6667 98.7595 45.04C98.1862 44.4133 97.3995 44.1 96.3995 44.1C95.3729 44.1 94.5529 44.44 93.9395 45.12C93.3262 45.8 93.0195 46.7867 93.0195 48.08V54H91.6195V43.08H93.0195V44.96C93.3662 44.28 93.8595 43.7667 94.4995 43.42C95.1395 43.06 95.8529 42.88 96.6395 42.88C97.5862 42.88 98.4129 43.1067 99.1195 43.56C99.8395 44.0133 100.36 44.68 100.68 45.56C100.973 44.6933 101.473 44.0333 102.18 43.58C102.9 43.1133 103.713 42.88 104.62 42.88ZM121.949 47.98C121.949 48.46 121.935 48.8267 121.909 49.08H112.849C112.889 49.9067 113.089 50.6133 113.449 51.2C113.809 51.7867 114.282 52.2333 114.869 52.54C115.455 52.8333 116.095 52.98 116.789 52.98C117.695 52.98 118.455 52.76 119.069 52.32C119.695 51.88 120.109 51.2867 120.309 50.54H121.789C121.522 51.6067 120.949 52.48 120.069 53.16C119.202 53.8267 118.109 54.16 116.789 54.16C115.762 54.16 114.842 53.9333 114.029 53.48C113.215 53.0133 112.575 52.36 112.109 51.52C111.655 50.6667 111.429 49.6733 111.429 48.54C111.429 47.4067 111.655 46.4133 112.109 45.56C112.562 44.7067 113.195 44.0533 114.009 43.6C114.822 43.1467 115.749 42.92 116.789 42.92C117.829 42.92 118.735 43.1467 119.509 43.6C120.295 44.0533 120.895 44.6667 121.309 45.44C121.735 46.2 121.949 47.0467 121.949 47.98ZM120.529 47.94C120.542 47.1267 120.375 46.4333 120.029 45.86C119.695 45.2867 119.235 44.8533 118.649 44.56C118.062 44.2667 117.422 44.12 116.729 44.12C115.689 44.12 114.802 44.4533 114.069 45.12C113.335 45.7867 112.929 46.7267 112.849 47.94H120.529ZM129.63 42.88C130.937 42.88 132.003 43.2867 132.83 44.1C133.657 44.9 134.07 46.0667 134.07 47.6V54H132.69V47.76C132.69 46.5733 132.39 45.6667 131.79 45.04C131.203 44.4133 130.397 44.1 129.37 44.1C128.317 44.1 127.477 44.4333 126.85 45.1C126.223 45.7667 125.91 46.7467 125.91 48.04V54H124.51V43.08H125.91V44.94C126.257 44.2733 126.757 43.7667 127.41 43.42C128.063 43.06 128.803 42.88 129.63 42.88ZM138.986 44.26V51.04C138.986 51.7067 139.113 52.1667 139.366 52.42C139.62 52.6733 140.066 52.8 140.706 52.8H141.986V54H140.486C139.5 54 138.766 53.7733 138.286 53.32C137.806 52.8533 137.566 52.0933 137.566 51.04V44.26H136.046V43.08H137.566V40.34H138.986V43.08H141.986V44.26H138.986ZM143.655 48.52C143.655 47.4 143.875 46.42 144.315 45.58C144.769 44.7267 145.389 44.0733 146.175 43.62C146.975 43.1533 147.875 42.92 148.875 42.92C149.915 42.92 150.809 43.16 151.555 43.64C152.315 44.12 152.862 44.7333 153.195 45.48V43.08H154.595V54H153.195V51.58C152.849 52.3267 152.295 52.9467 151.535 53.44C150.789 53.92 149.895 54.16 148.855 54.16C147.869 54.16 146.975 53.9267 146.175 53.46C145.389 52.9933 144.769 52.3333 144.315 51.48C143.875 50.6267 143.655 49.64 143.655 48.52ZM153.195 48.54C153.195 47.66 153.015 46.8867 152.655 46.22C152.295 45.5533 151.802 45.04 151.175 44.68C150.562 44.32 149.882 44.14 149.135 44.14C148.362 44.14 147.669 44.3133 147.055 44.66C146.442 45.0067 145.955 45.5133 145.595 46.18C145.249 46.8333 145.075 47.6133 145.075 48.52C145.075 49.4133 145.249 50.2 145.595 50.88C145.955 51.5467 146.442 52.06 147.055 52.42C147.669 52.7667 148.362 52.94 149.135 52.94C149.882 52.94 150.562 52.76 151.175 52.4C151.802 52.04 152.295 51.5267 152.655 50.86C153.015 50.1933 153.195 49.42 153.195 48.54ZM162.64 48.52C162.64 47.4 162.866 46.42 163.32 45.58C163.773 44.7267 164.393 44.0733 165.18 43.62C165.98 43.1533 166.88 42.92 167.88 42.92C168.84 42.92 169.706 43.1533 170.48 43.62C171.253 44.0867 171.82 44.6933 172.18 45.44V39.2H173.58V54H172.18V51.56C171.846 52.32 171.3 52.9467 170.54 53.44C169.78 53.92 168.886 54.16 167.86 54.16C166.86 54.16 165.96 53.9267 165.16 53.46C164.373 52.9933 163.753 52.3333 163.3 51.48C162.86 50.6267 162.64 49.64 162.64 48.52ZM172.18 48.54C172.18 47.66 172 46.8867 171.64 46.22C171.28 45.5533 170.786 45.04 170.16 44.68C169.546 44.32 168.866 44.14 168.12 44.14C167.346 44.14 166.653 44.3133 166.04 44.66C165.426 45.0067 164.94 45.5133 164.58 46.18C164.233 46.8333 164.06 47.6133 164.06 48.52C164.06 49.4133 164.233 50.2 164.58 50.88C164.94 51.5467 165.426 52.06 166.04 52.42C166.653 52.7667 167.346 52.94 168.12 52.94C168.866 52.94 169.546 52.76 170.16 52.4C170.786 52.04 171.28 51.5267 171.64 50.86C172 50.1933 172.18 49.42 172.18 48.54ZM186.656 47.98C186.656 48.46 186.642 48.8267 186.616 49.08H177.556C177.596 49.9067 177.796 50.6133 178.156 51.2C178.516 51.7867 178.989 52.2333 179.576 52.54C180.162 52.8333 180.802 52.98 181.496 52.98C182.402 52.98 183.162 52.76 183.776 52.32C184.402 51.88 184.816 51.2867 185.016 50.54H186.496C186.229 51.6067 185.656 52.48 184.776 53.16C183.909 53.8267 182.816 54.16 181.496 54.16C180.469 54.16 179.549 53.9333 178.736 53.48C177.922 53.0133 177.282 52.36 176.816 51.52C176.362 50.6667 176.136 49.6733 176.136 48.54C176.136 47.4067 176.362 46.4133 176.816 45.56C177.269 44.7067 177.902 44.0533 178.716 43.6C179.529 43.1467 180.456 42.92 181.496 42.92C182.536 42.92 183.442 43.1467 184.216 43.6C185.002 44.0533 185.602 44.6667 186.016 45.44C186.442 46.2 186.656 47.0467 186.656 47.98ZM185.236 47.94C185.249 47.1267 185.082 46.4333 184.736 45.86C184.402 45.2867 183.942 44.8533 183.356 44.56C182.769 44.2667 182.129 44.12 181.436 44.12C180.396 44.12 179.509 44.4533 178.776 45.12C178.042 45.7867 177.636 46.7267 177.556 47.94H185.236ZM203.645 44.04C203.645 45.24 203.252 46.2067 202.465 46.94C201.679 47.6733 200.499 48.04 198.925 48.04H196.105V54H194.705V40.02H198.925C200.485 40.02 201.659 40.3867 202.445 41.12C203.245 41.8533 203.645 42.8267 203.645 44.04ZM198.925 46.84C201.112 46.84 202.205 45.9067 202.205 44.04C202.205 43.1067 201.945 42.4 201.425 41.92C200.905 41.44 200.072 41.2 198.925 41.2H196.105V46.84H198.925ZM207.395 39.2V54H205.995V39.2H207.395ZM209.925 48.52C209.925 47.4 210.145 46.42 210.585 45.58C211.038 44.7267 211.658 44.0733 212.445 43.62C213.245 43.1533 214.145 42.92 215.145 42.92C216.185 42.92 217.078 43.16 217.825 43.64C218.585 44.12 219.132 44.7333 219.465 45.48V43.08H220.865V54H219.465V51.58C219.118 52.3267 218.565 52.9467 217.805 53.44C217.058 53.92 216.165 54.16 215.125 54.16C214.138 54.16 213.245 53.9267 212.445 53.46C211.658 52.9933 211.038 52.3333 210.585 51.48C210.145 50.6267 209.925 49.64 209.925 48.52ZM219.465 48.54C219.465 47.66 219.285 46.8867 218.925 46.22C218.565 45.5533 218.072 45.04 217.445 44.68C216.832 44.32 216.152 44.14 215.405 44.14C214.632 44.14 213.938 44.3133 213.325 44.66C212.712 45.0067 212.225 45.5133 211.865 46.18C211.518 46.8333 211.345 47.6133 211.345 48.52C211.345 49.4133 211.518 50.2 211.865 50.88C212.225 51.5467 212.712 52.06 213.325 52.42C213.938 52.7667 214.632 52.94 215.405 52.94C216.152 52.94 216.832 52.76 217.445 52.4C218.072 52.04 218.565 51.5267 218.925 50.86C219.285 50.1933 219.465 49.42 219.465 48.54ZM229.181 42.88C230.488 42.88 231.554 43.2867 232.381 44.1C233.208 44.9 233.621 46.0667 233.621 47.6V54H232.241V47.76C232.241 46.5733 231.941 45.6667 231.341 45.04C230.754 44.4133 229.948 44.1 228.921 44.1C227.868 44.1 227.028 44.4333 226.401 45.1C225.774 45.7667 225.461 46.7467 225.461 48.04V54H224.061V43.08H225.461V44.94C225.808 44.2733 226.308 43.7667 226.961 43.42C227.614 43.06 228.354 42.88 229.181 42.88ZM241.837 42.88C243.144 42.88 244.211 43.2867 245.037 44.1C245.864 44.9 246.277 46.0667 246.277 47.6V54H244.897V47.76C244.897 46.5733 244.597 45.6667 243.997 45.04C243.411 44.4133 242.604 44.1 241.577 44.1C240.524 44.1 239.684 44.4333 239.057 45.1C238.431 45.7667 238.117 46.7467 238.117 48.04V54H236.717V43.08H238.117V44.94C238.464 44.2733 238.964 43.7667 239.617 43.42C240.271 43.06 241.011 42.88 241.837 42.88ZM250.073 41.02C249.793 41.02 249.553 40.92 249.353 40.72C249.153 40.52 249.053 40.2733 249.053 39.98C249.053 39.6867 249.153 39.4467 249.353 39.26C249.553 39.06 249.793 38.96 250.073 38.96C250.353 38.96 250.593 39.06 250.793 39.26C250.993 39.4467 251.093 39.6867 251.093 39.98C251.093 40.2733 250.993 40.52 250.793 40.72C250.593 40.92 250.353 41.02 250.073 41.02ZM250.773 43.08V54H249.373V43.08H250.773ZM259.064 42.88C260.37 42.88 261.437 43.2867 262.264 44.1C263.09 44.9 263.504 46.0667 263.504 47.6V54H262.124V47.76C262.124 46.5733 261.824 45.6667 261.224 45.04C260.637 44.4133 259.83 44.1 258.804 44.1C257.75 44.1 256.91 44.4333 256.284 45.1C255.657 45.7667 255.344 46.7467 255.344 48.04V54H253.944V43.08H255.344V44.94C255.69 44.2733 256.19 43.7667 256.844 43.42C257.497 43.06 258.237 42.88 259.064 42.88ZM271.18 42.92C272.207 42.92 273.1 43.16 273.86 43.64C274.62 44.12 275.167 44.7267 275.5 45.46V43.08H276.9V54.28C276.9 55.28 276.68 56.1667 276.24 56.94C275.813 57.7133 275.213 58.3067 274.44 58.72C273.667 59.1467 272.787 59.36 271.8 59.36C270.4 59.36 269.233 59.0267 268.3 58.36C267.38 57.6933 266.807 56.7867 266.58 55.64H267.96C268.2 56.4 268.653 57.0067 269.32 57.46C270 57.9133 270.827 58.14 271.8 58.14C272.507 58.14 273.14 57.9867 273.7 57.68C274.26 57.3867 274.7 56.9467 275.02 56.36C275.34 55.7733 275.5 55.08 275.5 54.28V51.58C275.153 52.3267 274.6 52.9467 273.84 53.44C273.093 53.92 272.207 54.16 271.18 54.16C270.18 54.16 269.28 53.9267 268.48 53.46C267.693 52.9933 267.073 52.3333 266.62 51.48C266.18 50.6267 265.96 49.64 265.96 48.52C265.96 47.4 266.18 46.42 266.62 45.58C267.073 44.7267 267.693 44.0733 268.48 43.62C269.28 43.1533 270.18 42.92 271.18 42.92ZM275.5 48.54C275.5 47.66 275.32 46.8867 274.96 46.22C274.6 45.5533 274.107 45.04 273.48 44.68C272.867 44.32 272.187 44.14 271.44 44.14C270.667 44.14 269.973 44.3133 269.36 44.66C268.747 45.0067 268.26 45.5133 267.9 46.18C267.553 46.8333 267.38 47.6133 267.38 48.52C267.38 49.4133 267.553 50.2 267.9 50.88C268.26 51.5467 268.747 52.06 269.36 52.42C269.973 52.7667 270.667 52.94 271.44 52.94C272.187 52.94 272.867 52.76 273.48 52.4C274.107 52.04 274.6 51.5267 274.96 50.86C275.32 50.1933 275.5 49.42 275.5 48.54ZM294.524 44.04C294.524 45.24 294.131 46.2067 293.344 46.94C292.558 47.6733 291.378 48.04 289.804 48.04H286.984V54H285.584V40.02H289.804C291.364 40.02 292.538 40.3867 293.324 41.12C294.124 41.8533 294.524 42.8267 294.524 44.04ZM289.804 46.84C291.991 46.84 293.084 45.9067 293.084 44.04C293.084 43.1067 292.824 42.4 292.304 41.92C291.784 41.44 290.951 41.2 289.804 41.2H286.984V46.84H289.804ZM301.653 54.16C300.627 54.16 299.7 53.9333 298.873 53.48C298.06 53.0133 297.413 52.36 296.933 51.52C296.467 50.6667 296.233 49.6733 296.233 48.54C296.233 47.4067 296.473 46.42 296.953 45.58C297.433 44.7267 298.087 44.0733 298.913 43.62C299.74 43.1533 300.667 42.92 301.693 42.92C302.72 42.92 303.647 43.1533 304.473 43.62C305.313 44.0733 305.967 44.7267 306.433 45.58C306.913 46.42 307.153 47.4067 307.153 48.54C307.153 49.66 306.913 50.6467 306.433 51.5C305.953 52.3533 305.293 53.0133 304.453 53.48C303.613 53.9333 302.68 54.16 301.653 54.16ZM301.653 52.94C302.373 52.94 303.04 52.78 303.653 52.46C304.267 52.1267 304.76 51.6333 305.133 50.98C305.52 50.3133 305.713 49.5 305.713 48.54C305.713 47.58 305.527 46.7733 305.153 46.12C304.78 45.4533 304.287 44.96 303.673 44.64C303.06 44.3067 302.393 44.14 301.673 44.14C300.953 44.14 300.287 44.3067 299.673 44.64C299.06 44.96 298.567 45.4533 298.193 46.12C297.833 46.7733 297.653 47.58 297.653 48.54C297.653 49.5 297.833 50.3133 298.193 50.98C298.567 51.6333 299.053 52.1267 299.653 52.46C300.267 52.78 300.933 52.94 301.653 52.94ZM315.605 54L311.105 49.1V54H309.705V39.2H311.105V47.96L315.505 43.08H317.465L312.285 48.52L317.505 54H315.605ZM329.195 47.98C329.195 48.46 329.182 48.8267 329.155 49.08H320.095C320.135 49.9067 320.335 50.6133 320.695 51.2C321.055 51.7867 321.528 52.2333 322.115 52.54C322.702 52.8333 323.342 52.98 324.035 52.98C324.942 52.98 325.702 52.76 326.315 52.32C326.942 51.88 327.355 51.2867 327.555 50.54H329.035C328.768 51.6067 328.195 52.48 327.315 53.16C326.448 53.8267 325.355 54.16 324.035 54.16C323.008 54.16 322.088 53.9333 321.275 53.48C320.462 53.0133 319.822 52.36 319.355 51.52C318.902 50.6667 318.675 49.6733 318.675 48.54C318.675 47.4067 318.902 46.4133 319.355 45.56C319.808 44.7067 320.442 44.0533 321.255 43.6C322.068 43.1467 322.995 42.92 324.035 42.92C325.075 42.92 325.982 43.1467 326.755 43.6C327.542 44.0533 328.142 44.6667 328.555 45.44C328.982 46.2 329.195 47.0467 329.195 47.98ZM327.775 47.94C327.788 47.1267 327.622 46.4333 327.275 45.86C326.942 45.2867 326.482 44.8533 325.895 44.56C325.308 44.2667 324.668 44.12 323.975 44.12C322.935 44.12 322.048 44.4533 321.315 45.12C320.582 45.7867 320.175 46.7267 320.095 47.94H327.775ZM333.156 45.02C333.463 44.34 333.93 43.8133 334.556 43.44C335.196 43.0667 335.976 42.88 336.896 42.88V44.34H336.516C335.503 44.34 334.69 44.6133 334.076 45.16C333.463 45.7067 333.156 46.62 333.156 47.9V54H331.756V43.08H333.156V45.02Z" fill="white"/>
<defs>
<linearGradient id="paint0_linear_2077_2" x1="161" y1="12.0129" x2="-0.754693" y2="12.0129" gradientUnits="userSpaceOnUse">
<stop stop-color="#2BBCAB"/>
<stop offset="0.33" stop-color="#29C2FA"/>
<stop offset="0.66" stop-color="#2248FB"/>
<stop offset="1" stop-color="#0079FD"/>
</linearGradient>
</defs>
</svg>
