<svg width="29" height="29" viewBox="0 0 29 29" fill="none" xmlns="http://www.w3.org/2000/svg">
<path d="M20.542 26.5834C19.535 26.5834 18.6791 26.2309 17.9743 25.5261C17.2694 24.8212 16.917 23.9653 16.917 22.9584C16.917 22.8375 16.9472 22.5556 17.0076 22.1125L8.51908 17.1584C8.19685 17.4604 7.82428 17.6973 7.40137 17.8689C6.97845 18.0404 6.52533 18.1258 6.04199 18.125C5.03505 18.125 4.17914 17.7726 3.47428 17.0677C2.76942 16.3629 2.41699 15.507 2.41699 14.5C2.41699 13.4931 2.76942 12.6372 3.47428 11.9323C4.17914 11.2275 5.03505 10.875 6.04199 10.875C6.52533 10.875 6.97845 10.9608 7.40137 11.1324C7.82428 11.304 8.19685 11.5404 8.51908 11.8417L17.0076 6.88752C16.9673 6.74655 16.9424 6.61081 16.9327 6.48031C16.923 6.34981 16.9178 6.2036 16.917 6.04169C16.917 5.03474 17.2694 4.17884 17.9743 3.47398C18.6791 2.76912 19.535 2.41669 20.542 2.41669C21.5489 2.41669 22.4048 2.76912 23.1097 3.47398C23.8146 4.17884 24.167 5.03474 24.167 6.04169C24.167 7.04863 23.8146 7.90453 23.1097 8.6094C22.4048 9.31426 21.5489 9.66669 20.542 9.66669C20.0587 9.66669 19.6055 9.58089 19.1826 9.40931C18.7597 9.23773 18.3871 9.0013 18.0649 8.70002L9.57637 13.6542C9.61665 13.7952 9.64202 13.9313 9.65249 14.0626C9.66296 14.1939 9.6678 14.3397 9.66699 14.5C9.66619 14.6603 9.66135 14.8065 9.65249 14.9386C9.64363 15.0708 9.61826 15.2065 9.57637 15.3459L18.0649 20.3C18.3871 19.9979 18.7597 19.7615 19.1826 19.5907C19.6055 19.4199 20.0587 19.3342 20.542 19.3334C21.5489 19.3334 22.4048 19.6858 23.1097 20.3906C23.8146 21.0955 24.167 21.9514 24.167 22.9584C24.167 23.9653 23.8146 24.8212 23.1097 25.5261C22.4048 26.2309 21.5489 26.5834 20.542 26.5834Z" fill="url(#paint0_linear_86_89)"/>
<defs>
<linearGradient id="paint0_linear_86_89" x1="24.167" y1="14.513" x2="2.31504" y2="14.513" gradientUnits="userSpaceOnUse">
<stop stop-color="#2BBCAB"/>
<stop offset="0.33" stop-color="#29C2FA"/>
<stop offset="0.66" stop-color="#2248FB"/>
<stop offset="1" stop-color="#0079FD"/>
</linearGradient>
</defs>
</svg>
