<svg width="37" height="32" viewBox="0 0 37 32" fill="none" xmlns="http://www.w3.org/2000/svg">
<path d="M16.758 1.31129C17.1061 0.709112 17.679 0.269704 18.3508 0.0895671C19.0226 -0.0905696 19.7385 0.00329342 20.3411 0.350542L26.25 3.76304C26.8529 4.11115 27.2928 4.68449 27.473 5.35695C27.6532 6.0294 27.5588 6.74588 27.2108 7.34879L23.8744 13.1317H26.25C26.5981 13.1317 26.9319 13.2699 27.1781 13.5161C27.4242 13.7622 27.5625 14.0961 27.5625 14.4442C27.5625 14.7923 27.4242 15.1261 27.1781 15.3722C26.9319 15.6184 26.5981 15.7567 26.25 15.7567H10.5C10.1519 15.7567 9.81806 15.6184 9.57192 15.3722C9.32578 15.1261 9.1875 14.7923 9.1875 14.4442C9.1875 14.0961 9.32578 13.7622 9.57192 13.5161C9.81806 13.2699 10.1519 13.1317 10.5 13.1317H12.2719C11.8405 12.7263 11.5589 12.187 11.4726 11.6013C11.3864 11.0157 11.5006 10.4181 11.7968 9.90554L16.758 1.31129ZM17.3801 13.1317H20.8425L24.9375 6.03629L19.0312 2.62379L14.07 11.218L17.3801 13.1317ZM9.933 7.88167H9.22425C8.5978 7.88187 7.98044 8.03155 7.42345 8.31826C6.86647 8.60497 6.38593 9.02045 6.02175 9.53017L0.732376 16.9327C0.255672 17.6007 -0.000383898 18.401 4.32014e-07 19.2217V27.5692C4.32014e-07 28.6135 0.414843 29.615 1.15327 30.3534C1.89169 31.0918 2.89321 31.5067 3.9375 31.5067H32.8125C33.8568 31.5067 34.8583 31.0918 35.5967 30.3534C36.3352 29.615 36.75 28.6135 36.75 27.5692V19.2217C36.7491 18.4016 36.4921 17.6023 36.015 16.9353L30.7283 9.53279C30.4241 9.10538 30.0377 8.74303 29.5916 8.46704L29.4866 8.66129L28.2791 10.7482C28.4007 10.8321 28.5072 10.9359 28.5941 11.0553L33.8205 18.3817H2.9295L8.16113 11.0579C8.33209 10.8177 8.57898 10.642 8.862 10.5592C8.946 9.88454 9.16388 9.22042 9.5235 8.59304L9.933 7.88167Z" fill="white"/>
</svg>
