<svg width="27" height="27" viewBox="0 0 27 27" fill="none" xmlns="http://www.w3.org/2000/svg">
<path d="M13.3333 0C15.1014 0 16.7971 0.702379 18.0474 1.95262C19.2976 3.20286 20 4.89856 20 6.66667C20 8.43478 19.2976 10.1305 18.0474 11.3807C16.7971 12.631 15.1014 13.3333 13.3333 13.3333C11.5652 13.3333 9.86953 12.631 8.61929 11.3807C7.36905 10.1305 6.66667 8.43478 6.66667 6.66667C6.66667 4.89856 7.36905 3.20286 8.61929 1.95262C9.86953 0.702379 11.5652 0 13.3333 0ZM13.3333 16.6667C20.7 16.6667 26.6667 19.65 26.6667 23.3333V26.6667H0V23.3333C0 19.65 5.96667 16.6667 13.3333 16.6667Z" fill="white"/>
</svg>
